<svg width="20" height="21" viewBox="0 0 20 21" fill="none" xmlns="http://www.w3.org/2000/svg">
    <path
        d="M10.5 0.5C12.2307 0.5 13.7124 1.82749 13.9628 3.50003L14 6.5H15.8C16.95 6.5 17.9163 7.4184 17.907 8.5511L17.9 8.7V18.3C17.9 19.4478 16.9851 20.4127 15.8553 20.4944L15.7 20.5H4.2C3.05 20.5 2.08368 19.5816 2.00515 18.3609L2 18.2V8.7C2 7.55217 2.91493 6.58733 4.04468 6.50561L4.2 6.5H6V4C6 2.16333 7.49511 0.607 9.31105 0.505285L9.5 0.5H10.5ZM10 12C9.2 12 8.5 12.7 8.5 13.5C8.5 14.3 9.2 15 10 15C10.8 15 11.5 14.3 11.5 13.5C11.5 12.7 10.8 12 10 12ZM10.5 1.5H9.5C8.156 1.5 7.08848 2.51376 7.00523 3.83349L7 4V6.5H13V4C13 2.656 11.9862 1.58848 10.6665 1.50523L10.5 1.5Z"
        fill="#668494" />
</svg>